Coordinates
version=1
nRows=17
nColumns=36
inDegrees=yes

Units are S.I. units (second, meters, Newtons, ...)
If the header above contains a line with 'inDegrees', this indicates whether rotational values are in degrees (yes) or radians (no).

endheader
time	pelvis_tilt	pelvis_list	pelvis_rotation	pelvis_tx	pelvis_ty	pelvis_tz	hip_flexion_r	hip_adduction_r	hip_rotation_r	knee_angle_r	knee_angle_r_beta	ankle_angle_r	subtalar_angle_r	mtp_angle_r	hip_flexion_l	hip_adduction_l	hip_rotation_l	knee_angle_l	knee_angle_l_beta	ankle_angle_l	subtalar_angle_l	mtp_angle_l	lumbar_extension	lumbar_bending	lumbar_rotation	arm_flex_r	arm_add_r	arm_rot_r	elbow_flex_r	pro_sup_r	arm_flex_l	arm_add_l	arm_rot_l	elbow_flex_l	pro_sup_l
      3.60000000	     -5.48482383	     -1.49933790	     11.34052037	      0.47119843	      0.91116842	     -0.06440697	      3.88435940	     -5.05109077	     -2.29783490	      2.82261986	      0.04926401	     -1.58907498	    -19.00326926	     -7.49999987	      8.14647160	     -6.19828094	      5.80178857	      1.57636571	      0.02751277	     -1.18984002	    -10.64819417	     -7.49999987	    -11.77836382	      1.00564903	      2.55824854	     33.07464907	     -1.62901946	     27.67978914	     35.96017408	     83.38433508	     24.95493826	     -1.89818696	     23.77557901	     28.29227932	     73.12259895
      3.60416670	     -5.81059204	     -1.55159138	     11.39363401	      0.46722464	      0.91123538	     -0.06005709	      4.32941765	     -5.06403131	     -1.76995344	      3.01958871	      0.05270176	     -2.27414302	    -20.60962063	     -7.49999987	      8.56500385	     -6.15178830	      6.36325561	      1.67347296	      0.02920761	     -1.28959855	    -11.38112766	     -7.49999987	    -11.21561239	      1.01941783	      2.85622991	     32.98706805	     -1.65681400	     27.87510900	     34.75696185	     84.91556152	     24.69576140	     -1.97655283	     23.84238066	     27.64679589	     73.99752813
      3.60833330	     -5.97301850	     -1.58451431	     11.58341511	      0.46348277	      0.91173818	     -0.06350590	      4.63376873	     -5.11006231	     -1.92514681	      3.20071373	      0.05586299	     -2.33058715	    -20.82766583	     -7.49999987	      8.86379625	     -6.06748108	      6.65580700	      1.75353865	      0.03060502	     -1.25177742	    -11.56020940	     -7.49999987	    -11.01702970	      1.06771768	      3.05614722	     32.62795057	     -2.07111165	     27.66368415	     34.22896836	     85.16211988	     24.26090187	     -2.01633866	     23.72431166	     27.45776621	     74.12815855
      3.61250000	     -6.15868938	     -1.59119584	     11.73602841	      0.46329565	      0.91192268	     -0.06399298	      5.00136387	     -5.18191947	     -1.89748608	      3.40888734	      0.05949631	     -2.50429607	    -21.32579992	     -7.49999987	      9.18197817	     -5.95904845	      7.06849923	      1.79003866	      0.03124207	     -1.48551361	    -12.08178481	     -7.49999987	    -10.88144245	      1.09381824	      3.32588302	     32.17340564	     -1.91579077	     24.93187430	     33.51026035	     91.15109979	     24.02222785	     -1.93177059	     22.30531941	     26.43719971	     77.03758295
      3.61666670	     -6.05006196	     -1.52146572	     11.90293511	      0.46724696	      0.91554501	     -0.06845569	      4.91351653	     -5.35300185	     -2.00686981	      3.57831515	      0.06245338	     -2.65410738	    -21.34797004	     -7.49999987	      9.09310395	     -5.79741487	      7.13762758	      1.82961887	      0.03193287	     -1.52711738	    -12.11774883	     -7.49999987	    -11.01504799	      1.19896040	      3.40148005	     31.64266343	     -2.21907791	     24.91167450	     33.20199246	     91.15897094	     23.04778995	     -1.91632358	     22.33709674	     26.11317280	     77.04432525
      3.62083330	     -6.27162445	     -1.55446508	     12.04020915	      0.46700077	      0.91250733	     -0.06864120	      5.19114471	     -5.48911131	     -2.00783089	      3.76307202	      0.06567800	     -2.87543981	    -21.70267648	     -7.49999987	      9.31837562	     -5.65067864	      7.71588249	      1.79193107	      0.03127510	     -1.88681605	    -13.09083588	     -7.49999987	    -10.48138758	      1.29472809	      3.55770191	     31.23846732	     -2.26628127	     25.66289137	     31.51863385	     87.20017007	     22.23538145	     -1.51199141	     22.49101055	     24.63531599	     74.07814531
      3.62500000	     -6.23061211	     -1.54280071	     12.28182253	      0.46713589	      0.91283257	     -0.06804111	      5.12875653	     -5.57874558	     -2.11283093	      3.87833538	      0.06768972	     -3.02709443	    -21.90566463	     -7.49999987	      9.30136184	     -5.55569551	      7.99478781	      1.82449099	      0.03184337	     -1.92898063	    -13.23941410	     -7.49999987	    -10.44989115	      1.42058065	      3.67885415	     30.60029057	     -2.32658165	     24.28775436	     31.12219191	     93.39147093	     21.87181600	     -1.48728810	     23.82614382	     23.62447980	     76.86473133
      3.62916670	     -6.19453950	     -1.53199418	     12.36137382	      0.46331028	      0.91571745	     -0.06387334	      5.19455621	     -5.58902206	     -2.12882696	      3.99544501	      0.06973367	     -3.06171411	    -21.96722962	     -7.49999987	      9.29239275	     -5.54826550	      8.14219475	      1.86423083	      0.03253697	     -1.86295004	    -13.28063616	     -7.49999987	    -10.64058641	      1.47703569	      3.87230480	     30.24028214	     -2.22197007	     24.35701198	     30.89289307	     93.41430658	     21.46445130	     -1.41157840	     23.89787561	     23.41944626	     76.88353199
      3.63333330	     -6.27111087	     -1.56254957	     12.42688281	      0.46353578	      0.91287425	     -0.06303848	      5.43241836	     -5.52815168	     -1.93404011	      4.10950133	      0.07172433	     -3.31295133	    -22.63145323	     -7.49999987	      9.50510668	     -5.56339516	      8.47495524	      1.96591173	      0.03431163	     -1.94552261	    -13.79621510	     -7.49999987	    -10.49786273	      1.53717603	      4.17490354	     30.35823377	     -2.16675591	     26.21189955	     29.13398694	     91.95250010	     21.71977458	     -1.37761384	     26.85515273	     21.86469426	     76.03380271
      3.63750000	     -6.17994695	     -1.56380873	     12.52082595	      0.46728479	      0.91578933	     -0.05923006	      5.39096589	     -5.37715414	     -2.00058235	      4.17226541	      0.07281977	     -3.34221814	    -22.68278655	     -7.49999987	      9.46808958	     -5.68829794	      8.56463621	      2.05662983	      0.03589496	     -2.09555341	    -13.73278268	     -7.49999987	    -10.63342812	      1.50696016	      4.49268117	     29.82498811	     -1.95586591	     26.28399677	     28.93126604	     91.98760550	     21.39527893	     -1.49367163	     26.86397621	     21.71592413	     76.03887608
      3.64166670	     -6.23980871	     -1.66821685	     12.57461353	      0.46759813	      0.91290674	     -0.05899161	      5.53010866	     -5.17573890	     -2.06583349	      4.24516737	      0.07409215	     -3.36820783	    -22.92770980	     -7.49999987	      9.59367192	     -5.89043078	      8.81740191	      2.06792393	      0.03609208	     -2.45631920	    -14.36589356	     -7.49999987	    -10.37081571	      1.56215540	      5.09436491	     29.47766105	     -1.69250483	     26.53228568	     27.51790317	     89.57568354	     21.19455120	     -1.40061329	     27.21127836	     20.62581621	     74.56883402
      3.64583330	     -6.18952902	     -1.67305921	     12.63243145	      0.46733755	      0.91322487	     -0.05933897	      5.54261146	     -5.06899722	     -1.99218603	      4.40259670	      0.07683981	     -3.37965784	    -23.25108374	     -7.49999987	      9.60891999	     -6.01638725	      8.69654478	      2.14613232	      0.03745708	     -2.49608055	    -14.13165090	     -7.49999987	    -10.31684562	      1.54725226	      5.68942578	     29.15931995	     -1.86424465	     27.65274636	     26.81244035	     91.66971675	     21.01731665	     -1.88107598	     29.63482055	     19.99976249	     74.97297977
      3.65000000	     -6.19943626	     -1.68625199	     12.69283539	      0.46760666	      0.91344732	     -0.05909989	      5.53625011	     -4.96479533	     -2.00243036	      4.38680355	      0.07656417	     -3.39934341	    -23.48586929	     -7.49999987	      9.64288480	     -6.11590775	      8.79787227	      2.15710024	      0.03764850	     -2.64574076	    -14.24450738	     -7.49999987	    -10.26312910	      1.45451235	      6.23173692	     28.57539281	     -1.66083558	     27.14306707	     26.41982139	     89.81468359	     20.52872474	     -2.07898475	     28.85786353	     19.63359341	     73.56494584
      3.65416670	     -6.19394556	     -1.72115086	     12.69316344	      0.46737511	      0.91352590	     -0.05940778	      5.61468241	     -4.88816056	     -2.14009397	      4.50610347	      0.07864634	     -3.38127951	    -23.52288980	     -7.49999987	      9.65524876	     -6.21223017	      8.71574001	      2.16723533	      0.03782539	     -2.73534383	    -14.14923776	     -7.49999987	    -10.20758194	      1.42505125	      6.69157350	     28.03070116	     -1.77110042	     26.80650413	     26.13691484	     93.29712843	     20.03369488	     -2.31415542	     28.27045824	     19.48050412	     74.21400422
      3.65833330	     -6.18640482	     -1.75422086	     12.71446536	      0.46783794	      0.91379838	     -0.05908319	      5.70634597	     -4.81373370	     -2.08202925	      4.64148470	      0.08100919	     -3.55427002	    -23.91316072	     -7.49999987	      9.63727957	     -6.28682086	      8.72119186	      2.15444685	      0.03760219	     -2.73364579	    -14.06387354	     -7.49999987	    -10.18211375	      1.33330742	      7.33471446	     26.95954803	     -1.85539462	     23.96303534	     26.37926443	     95.93469662	     19.39566178	     -2.18202063	     25.85583243	     19.58296036	     75.53646343
      3.66250000	     -6.17570592	     -1.75520542	     12.85821233	      0.46747842	      0.91382799	     -0.05948236	      5.79098534	     -4.80650464	     -2.06302618	      4.89905225	      0.08550459	     -3.58395195	    -24.17594210	     -7.49999987	      9.69172442	     -6.29788042	      8.83586924	      2.20049682	      0.03840591	     -2.96173035	    -14.25857973	     -7.49999987	    -10.09643510	      1.31390331	      7.66693899	     26.59303917	     -1.96124456	     23.84584750	     25.67794398	     93.77586883	     18.76477096	     -2.22859801	     25.44248288	     19.40676141	     74.24295813
      3.66666670	     -6.18522874	     -1.71957774	     12.94895766	      0.46774682	      0.91406017	     -0.05924322	      5.86462206	     -4.83992518	     -2.11642597	      5.07358130	      0.08855070	     -3.59341705	    -24.32718634	     -7.49999987	      9.67936029	     -6.27041028	      8.88980410	      2.15352641	      0.03758613	     -3.03747582	    -14.18288714	     -7.49999987	    -10.02369703	      1.23574698	      7.92846782	     26.01318424	     -2.10196952	     23.22372390	     25.24129100	     96.83789529	     17.79664613	     -2.28618776	     25.60102016	     19.62171205	     76.05949297
